<?xml version="1.0" encoding="UTF-8"?>
<svg version="1.1" xmlns="http://www.w3.org/2000/svg" width="267" height="300">
<path d="M0 0 C1.06605469 -0.03738281 2.13210937 -0.07476563 3.23046875 -0.11328125 C12.58113148 0.99819338 20.87568833 7.05710142 28.875 11.6875 C30.11880221 12.40321876 31.36278311 13.11862705 32.60693359 13.83374023 C42.37211528 19.45325024 52.10282355 25.13214107 61.828125 30.8203125 C68.10147984 34.48631716 74.39273074 38.12091845 80.6875 41.75 C81.75411865 42.36544678 82.8207373 42.98089355 83.91967773 43.61499023 C89.00300028 46.54654483 94.08917398 49.47292588 99.18334961 52.38557434 C100.97137857 53.40830066 102.75852816 54.43254666 104.54541016 55.45727539 C106.78681676 56.74208451 109.02988598 58.02399911 111.27490234 59.30249023 C126.71419613 68.1625256 126.71419613 68.1625256 130.1875 74.4375 C130.91066406 75.70980469 130.91066406 75.70980469 131.6484375 77.0078125 C133.54413598 80.76104103 133.94172115 83.62398383 133.95967102 87.77578735 C133.97040398 89.47895111 133.97040398 89.47895111 133.98135376 91.21652222 C133.98404266 92.46329742 133.98673157 93.71007263 133.98950195 94.99462891 C133.99607315 96.30709595 134.00264435 97.61956299 134.00941467 98.97180176 C134.03044349 103.32754293 134.04081835 107.68328439 134.05078125 112.0390625 C134.05482974 113.54052117 134.05894669 115.04197966 134.06313133 116.54343796 C134.08218318 123.60047461 134.09641225 130.65750082 134.1047433 137.71455824 C134.11450553 145.84891406 134.14079832 153.98299703 134.18124419 162.11725676 C134.21146054 168.41125101 134.22621753 174.70516731 134.22952431 180.99923265 C134.23186921 184.75493822 134.24075551 188.5103523 134.26598549 192.26597977 C134.28936724 195.80373269 134.29345944 199.34100435 134.28322411 202.8788147 C134.28249727 204.78435404 134.30151896 206.68986948 134.32128906 208.5953064 C134.26786789 217.46081927 132.6337563 225.09396062 126.50537109 231.86376953 C122.48749494 235.30220003 117.73252004 237.70138938 113.125 240.25 C111.9621758 240.90498255 110.80007923 241.56125839 109.63867188 242.21875 C107.22885276 243.58167136 104.81602022 244.93901429 102.40087891 246.29248047 C96.84166735 249.41402893 91.32979201 252.61765873 85.8125 255.8125 C83.64605317 257.06288098 81.47938579 258.3128799 79.3125 259.5625 C78.24 260.18125 77.1675 260.8 76.0625 261.4375 C72.8125 263.3125 69.5625 265.1875 66.3125 267.0625 C65.2387915 267.6819751 64.16508301 268.3014502 63.05883789 268.93969727 C60.9044759 270.18254233 58.75001715 271.42521967 56.59545898 272.66772461 C51.57979036 275.56045937 46.56501769 278.45470746 41.55386353 281.35525513 C39.79591931 282.37267706 38.03765558 283.38954461 36.27929688 284.40625 C34.08595599 285.6746881 31.89320153 286.94414102 29.70117188 288.21484375 C8.53656463 300.44872077 8.53656463 300.44872077 0.6875 300.625 C-0.38757813 300.66238281 -1.46265625 300.69976562 -2.5703125 300.73828125 C-11.75930371 299.65663974 -19.85457247 293.77227777 -27.6875 289.1875 C-28.84361184 288.51532864 -29.99994556 287.84353876 -31.15649414 287.17211914 C-38.28914185 283.02652203 -45.41026653 278.85951617 -52.49609375 274.63427734 C-56.09711207 272.49714282 -59.73912113 270.45825797 -63.421875 268.46484375 C-69.35523671 265.2459123 -75.18028236 261.85657824 -81 258.4375 C-87.56525175 254.5922316 -94.13238309 250.75451553 -100.75 247 C-105.59724667 244.23184198 -110.43718796 241.45259284 -115.25 238.625 C-115.87011963 238.26817139 -116.49023926 237.91134277 -117.12915039 237.54370117 C-122.54793072 234.33254458 -126.67749374 230.58556232 -129.9375 225.1875 C-130.34484375 224.52492187 -130.7521875 223.86234375 -131.171875 223.1796875 C-133.09090129 219.65163148 -133.3176279 216.79128622 -133.33467102 212.84921265 C-133.34182632 211.71377014 -133.34898163 210.57832764 -133.35635376 209.40847778 C-133.35904266 208.16170258 -133.36173157 206.91492737 -133.36450195 205.63037109 C-133.37107315 204.31790405 -133.37764435 203.00543701 -133.38441467 201.65319824 C-133.40544349 197.29745707 -133.41581835 192.94171561 -133.42578125 188.5859375 C-133.42982974 187.08447883 -133.43394669 185.58302034 -133.43813133 184.08156204 C-133.45718318 177.02452539 -133.47141225 169.96749918 -133.4797433 162.91044176 C-133.48950553 154.77608594 -133.51579832 146.64200297 -133.55624419 138.50774324 C-133.58646054 132.21374899 -133.60121753 125.91983269 -133.60452431 119.62576735 C-133.60686921 115.87006178 -133.61575551 112.1146477 -133.64098549 108.35902023 C-133.66436724 104.82126731 -133.66845944 101.28399565 -133.65822411 97.7461853 C-133.65749727 95.84064596 -133.67651896 93.93513052 -133.69628906 92.0296936 C-133.64291689 83.17231231 -132.01124557 75.53128448 -125.88916016 68.765625 C-121.83124428 65.30038607 -117.0249935 62.88287542 -112.375 60.3125 C-111.20693096 59.65497878 -110.03962497 58.99610035 -108.87304688 58.3359375 C-106.47812759 56.98139467 -104.08054079 55.63176467 -101.68115234 54.28515625 C-96.4796753 51.35772772 -91.33529624 48.33299387 -86.1875 45.3125 C-74.66196576 38.57509485 -63.09946714 31.90254461 -51.53125 25.23876953 C-46.91972575 22.58215984 -42.3089786 19.92420443 -37.69873047 17.26538086 C-35.52085118 16.00937102 -33.34280494 14.75365061 -31.16455078 13.49829102 C-30.16407715 12.92135498 -29.16360352 12.34441895 -28.1328125 11.75 C-27.15860352 11.18925781 -26.18439453 10.62851563 -25.18066406 10.05078125 C-23.08146395 8.83166993 -20.99029876 7.59866743 -18.90527344 6.35546875 C-17.84083008 5.72253906 -16.77638672 5.08960938 -15.6796875 4.4375 C-14.24278564 3.57511719 -14.24278564 3.57511719 -12.77685547 2.6953125 C-8.4986071 0.41056813 -4.82259481 0.10947348 0 0 Z " fill="#E4A663" transform="translate(133.1875,-0.3125)"/>
<path d="M0 0 C1.59877871 0.78539371 3.19596628 1.57402691 4.79248047 2.36401367 C5.68208466 2.80283371 6.57168884 3.24165375 7.48825073 3.69377136 C17.78726495 9.04974677 26.61256965 17.3695318 33.5 26.625 C37.14767264 31.3867808 41.01875453 35.9352483 47.015625 37.5390625 C52.01049162 37.89055311 55.90411393 36.33519936 60.5 34.5 C70.08303152 30.85969257 80.7675287 30.05908879 90.5625 33.625 C102.62419586 39.47185596 110.31694768 48.53766243 115 61 C115.82179887 63.84437616 116.15173011 66.45015795 116.24609375 69.40625 C116.27896484 70.23253906 116.31183594 71.05882812 116.34570312 71.91015625 C116.4068963 73.63658488 116.46418884 75.36315617 116.51757812 77.08984375 C116.55173828 77.91613281 116.58589844 78.74242187 116.62109375 79.59375 C116.6461499 80.34333984 116.67120605 81.09292969 116.69702148 81.86523438 C117.03481113 84.24527678 117.82197613 85.91908962 119 88 C120.65 88 122.3 88 124 88 C124.27972656 87.20335937 124.55945313 86.40671875 124.84765625 85.5859375 C127.72832204 77.97208772 130.57435633 72.71282183 138 69 C142.94524615 68.44851917 147.35674436 68.21035486 151.625 71 C155.98696893 73.58487048 158.0094712 73.57268363 163 73 C165.34261608 71.62073227 165.34261608 71.62073227 167 70 C167.66 70 168.32 70 169 70 C169.39638672 69.17435547 169.39638672 69.17435547 169.80078125 68.33203125 C174.60404583 58.99148091 180.64382685 49.14365433 190.56640625 44.65625 C200.56459963 41.96010796 209.1980936 44.0990468 218.125 48.5625 C224.14365959 53.66527661 227.16513934 60.43925795 229 68 C229.15922382 70.74601164 229.23528395 73.38117747 229.1953125 76.12109375 C229.1924826 76.86585464 229.18965271 77.61061554 229.18673706 78.37794495 C229.17563917 80.73130101 229.1505551 83.08426109 229.125 85.4375 C229.11495672 87.04361425 229.10583324 88.64973454 229.09765625 90.25585938 C229.07573407 94.17072296 229.04127761 98.0852946 229 102 C231.91652174 102.16681109 231.91652174 102.16681109 235 102 C237.30545416 100.1378496 237.30545416 100.1378496 237.16357422 97.18115234 C237.1276416 95.99473145 237.09170898 94.80831055 237.0546875 93.5859375 C237.02721436 92.27455811 236.99974121 90.96317871 236.97143555 89.61206055 C236.95478851 88.91930023 236.93814148 88.22653992 236.92098999 87.51278687 C236.55050172 70.29110558 237.43148495 53.87637847 248.4375 39.625 C252.37332631 35.59317792 255.47485323 32.78148973 261.25 32.6875 C265 33 265 33 267 34 C267.09304872 42.0586841 267.16394017 50.11714038 267.20724869 58.17623043 C267.22804413 61.9191949 267.25621208 65.66178941 267.30175781 69.40454102 C267.34550624 73.02260999 267.36919746 76.64032514 267.37950897 80.25863838 C267.38684881 81.63284429 267.40118084 83.0070328 267.42292023 84.38108635 C267.574282 94.3527347 266.64445102 102.87210672 259.69287109 110.55126953 C255.67499494 113.98970003 250.92002004 116.38888938 246.3125 118.9375 C245.1496758 119.59248255 243.98757923 120.24875839 242.82617188 120.90625 C240.41635276 122.26917136 238.00352022 123.62651429 235.58837891 124.97998047 C230.02916735 128.10152893 224.51729201 131.30515873 219 134.5 C216.83355317 135.75038098 214.66688579 137.0003799 212.5 138.25 C211.4275 138.86875 210.355 139.4875 209.25 140.125 C206 142 202.75 143.875 199.5 145.75 C198.4262915 146.3694751 197.35258301 146.9889502 196.24633789 147.62719727 C194.0919759 148.87004233 191.93751715 150.11271967 189.78295898 151.35522461 C184.76729036 154.24795937 179.75251769 157.14220746 174.74136353 160.04275513 C172.98341931 161.06017706 171.22515558 162.07704461 169.46679688 163.09375 C167.27345599 164.3621881 165.08070153 165.63164102 162.88867188 166.90234375 C141.72406463 179.13622077 141.72406463 179.13622077 133.875 179.3125 C132.26238281 179.36857422 132.26238281 179.36857422 130.6171875 179.42578125 C121.42819629 178.34413974 113.33292753 172.45977777 105.5 167.875 C104.34388816 167.20282864 103.18755444 166.53103876 102.03100586 165.85961914 C94.89835815 161.71402203 87.77723347 157.54701617 80.69140625 153.32177734 C77.09038793 151.18464282 73.44837887 149.14575797 69.765625 147.15234375 C63.83226329 143.9334123 58.00721764 140.54407824 52.1875 137.125 C45.62224825 133.2797316 39.05511691 129.44201553 32.4375 125.6875 C27.59025333 122.91934198 22.75031204 120.14009284 17.9375 117.3125 C17.31738037 116.95567139 16.69726074 116.59884277 16.05834961 116.23120117 C10.63956928 113.02004458 6.51000626 109.27306232 3.25 103.875 C2.84265625 103.21242188 2.4353125 102.54984375 2.015625 101.8671875 C0.36637647 98.83510751 -0.12463882 96.34580569 -0.12025452 92.95674133 C-0.12162918 92.1364444 -0.12300385 91.31614746 -0.12442017 90.47099304 C-0.11902725 89.12663933 -0.11902725 89.12663933 -0.11352539 87.75512695 C-0.11367142 86.80859253 -0.11381744 85.86205811 -0.1139679 84.88684082 C-0.11327047 81.75396443 -0.10548599 78.62114727 -0.09765625 75.48828125 C-0.09579147 73.3178053 -0.09436785 71.14732894 -0.09336853 68.97685242 C-0.08954811 63.26072022 -0.07972184 57.54461338 -0.06866455 51.82849121 C-0.05844024 45.99699242 -0.05386872 40.16548954 -0.04882812 34.33398438 C-0.03809918 22.88931177 -0.02102842 11.44465799 0 0 Z " fill="#5E464D" transform="translate(0,121)"/>
<path d="M0 0 C0.99 0.495 0.99 0.495 2 1 C-7.8187473 6.81193259 -17.67511901 12.55557374 -27.5625 18.25 C-36.09631715 23.165439 -44.62005441 28.09725776 -53.125 33.0625 C-54.10090088 33.63218506 -55.07680176 34.20187012 -56.08227539 34.78881836 C-61.14762572 37.74705656 -66.21096904 40.70870826 -71.2734375 43.671875 C-89.25748748 54.19269838 -89.25748748 54.19269838 -98.25 59.3125 C-98.88744141 59.67964111 -99.52488281 60.04678223 -100.18164062 60.42504883 C-103.08508706 62.06523997 -105.6968998 63.45619692 -109 64 C-109.8353125 64.15984375 -110.670625 64.3196875 -111.53125 64.484375 C-123.47226891 65.55278195 -132.1692851 58.97787301 -142 53 C-143.40401547 52.17457274 -144.81013261 51.35270542 -146.21875 50.53515625 C-148.96663249 48.93809918 -151.70550174 47.32720891 -154.4375 45.703125 C-159.69046286 42.58388776 -164.97063495 39.51176835 -170.25 36.4375 C-211.69034566 12.28098217 -211.69034566 12.28098217 -227 3 C-226.34 2.67 -225.68 2.34 -225 2 C-222.82714844 2.8894043 -222.82714844 2.8894043 -220.109375 4.32421875 C-218.59827148 5.11554199 -218.59827148 5.11554199 -217.05664062 5.92285156 C-215.96544922 6.50518555 -214.87425781 7.08751953 -213.75 7.6875 C-212.61755859 8.28401367 -211.48511719 8.88052734 -210.31835938 9.49511719 C-202.46278358 13.64709891 -194.66590424 17.90229046 -186.88476562 22.19165039 C-177.7104032 27.21877656 -168.39786887 31.97152173 -159.08355713 36.73233032 C-150.05971588 41.3461616 -141.08194945 46.00234926 -132.33691406 51.13330078 C-126.5907472 54.44609609 -121.15515732 56.28914798 -114.5 56.25 C-113.18515625 56.25773437 -113.18515625 56.25773437 -111.84375 56.265625 C-105.10315125 55.63600863 -99.65162222 52.98886553 -93.8125 49.8125 C-92.59796143 49.16317505 -92.59796143 49.16317505 -91.35888672 48.50073242 C-88.56889939 47.00726252 -85.78436809 45.50391816 -83 44 C-78.54320314 41.60130232 -74.08438405 39.20638393 -69.625 36.8125 C-69.03705658 36.49643799 -68.44911316 36.18037598 -67.84335327 35.85473633 C-58.04830494 30.59098075 -48.19038083 25.4584671 -38.3008728 20.37481689 C-27.4408959 14.78872326 -16.69569536 9.0091461 -6.01342773 3.09057617 C-5.01678101 2.55074097 -5.01678101 2.55074097 -4 2 C-3.29496338 1.60208252 -2.58992676 1.20416504 -1.86352539 0.79418945 C-0.94108032 0.40106567 -0.94108032 0.40106567 0 0 Z " fill="#FDF9F5" transform="translate(248,86)"/>
<path d="M0 0 C0.60763184 0.34337402 1.21526367 0.68674805 1.84130859 1.04052734 C3.92409177 2.22038995 5.99540766 3.41787015 8.0625 4.625 C8.74296387 5.02130615 9.42342773 5.4176123 10.12451172 5.82592773 C11.78574628 6.82636199 13.39825581 7.90684652 15 9 C15 9.66 15 10.32 15 11 C14.01 10.67 13.02 10.34 12 10 C11.67 10.99 11.34 11.98 11 13 C9.70692774 12.58771609 8.41565267 12.16979706 7.125 11.75 C6.29355469 11.48058594 5.46210938 11.21117187 4.60546875 10.93359375 C2 10 2 10 -0.26171875 8.91015625 C-7.81685749 5.3057522 -15.82175365 4.0986679 -24 6 C-31.5417269 8.76449153 -38.71058036 12.39190938 -45.82373047 16.10375977 C-46.54189941 16.39951904 -47.26006836 16.69527832 -48 17 C-48.66 16.67 -49.32 16.34 -50 16 C-48.68 14.68 -47.36 13.36 -46 12 C-46.66 11.67 -47.32 11.34 -48 11 C-44.46297113 7.16757555 -40.04691943 4.94709419 -35.5625 2.375 C-34.27375977 1.62089844 -34.27375977 1.62089844 -32.95898438 0.8515625 C-32.12818359 0.37203125 -31.29738281 -0.1075 -30.44140625 -0.6015625 C-29.68545166 -1.03807129 -28.92949707 -1.47458008 -28.15063477 -1.92431641 C-19.18807569 -6.40712209 -8.3680444 -4.87171863 0 0 Z " fill="#E6A865" transform="translate(149,4)"/>
<path d="M0 0 C1.33693686 0.79353672 2.64610861 1.6343159 3.9375 2.5 C4.97777344 3.17546875 6.01804688 3.8509375 7.08984375 4.546875 C10.06453793 6.49442095 13.00641322 8.48732041 15.9375 10.5 C15.2775 10.83 14.6175 11.16 13.9375 11.5 C12.12458128 10.72454409 10.31537881 9.93841452 8.53295898 9.09521484 C-0.38139748 4.94923047 -9.19505201 1.90246636 -19.0625 4.5 C-26.58755374 7.31960354 -33.76849553 10.88951688 -40.88623047 14.60375977 C-41.60439941 14.89951904 -42.32256836 15.19527832 -43.0625 15.5 C-43.7225 15.17 -44.3825 14.84 -45.0625 14.5 C-41.55931962 12.37830194 -38.05382266 10.26049139 -34.54614258 8.14624023 C-33.35344325 7.42660012 -32.16137989 6.70590488 -30.9699707 5.98413086 C-29.25640135 4.94627497 -27.5403407 3.9125359 -25.82421875 2.87890625 C-24.79256592 2.2557251 -23.76091309 1.63254395 -22.69799805 0.99047852 C-16.238838 -2.66243228 -6.79597092 -3.25461054 0 0 Z " fill="#FBF4EC" transform="translate(144.0625,5.5)"/>
<path d="M0 0 C0.66 0.33 1.32 0.66 2 1 C-11.64113989 9.04382434 -25.31700753 17.02761368 -39 25 C-39.33 23.68 -39.66 22.36 -40 21 C-39.03698975 20.5059668 -38.07397949 20.01193359 -37.08178711 19.50292969 C-33.48216053 17.65574953 -29.88362428 15.80645381 -26.28540039 13.95654297 C-24.7329591 13.15877185 -23.1802294 12.36156171 -21.62719727 11.56494141 C-19.38480332 10.41458971 -17.14348155 9.26217167 -14.90234375 8.109375 C-14.21663803 7.75816589 -13.53093231 7.40695679 -12.82444763 7.04510498 C-9.52771305 5.34693576 -6.30848789 3.59399614 -3.13110352 1.68066406 C-2.09783936 1.12604492 -1.0645752 0.57142578 0 0 Z " fill="#FBF4EB" transform="translate(248,86)"/>
<path d="M0 0 C6.05034312 1.69083663 11.36414871 4.6828924 16.875 7.625 C17.84953125 8.140625 18.8240625 8.65625 19.828125 9.1875 C22.22093706 10.45428286 24.61144536 11.72521318 27 13 C26.01 13.66 25.02 14.32 24 15 C20.18255476 12.88379303 16.37193544 10.7555869 12.5625 8.625 C11.47388672 8.02171875 10.38527344 7.4184375 9.26367188 6.796875 C8.22919922 6.21679688 7.19472656 5.63671875 6.12890625 5.0390625 C4.69140015 4.23782959 4.69140015 4.23782959 3.22485352 3.42041016 C1 2 1 2 0 0 Z " fill="#FAF0E4" transform="translate(21,88)"/>
<path d="M0 0 C0.66 0.33 1.32 0.66 2 1 C-0.70636875 2.60749827 -3.4154418 4.21038459 -6.125 5.8125 C-6.88554687 6.26431641 -7.64609375 6.71613281 -8.4296875 7.18164062 C-12.55210125 9.61599702 -16.68133926 11.92345546 -21 14 C-21.66 13.34 -22.32 12.68 -23 12 C-19.21511915 9.96625973 -15.42108665 7.95023552 -11.625 5.9375 C-10.00464844 5.06641602 -10.00464844 5.06641602 -8.3515625 4.17773438 C-7.3203125 3.63310547 -6.2890625 3.08847656 -5.2265625 2.52734375 C-4.27346191 2.01937256 -3.32036133 1.51140137 -2.33837891 0.98803711 C-1.56671387 0.66198486 -0.79504883 0.33593262 0 0 Z " fill="#F9EBDB" transform="translate(248,86)"/>
<path d="M0 0 C0.81210938 0.59941406 0.81210938 0.59941406 1.640625 1.2109375 C-0.47978242 2.24127632 -2.60585408 3.25996604 -4.734375 4.2734375 C-6.50941406 5.12615234 -6.50941406 5.12615234 -8.3203125 5.99609375 C-9.32320313 6.39699219 -10.32609375 6.79789063 -11.359375 7.2109375 C-12.019375 6.8809375 -12.679375 6.5509375 -13.359375 6.2109375 C-11.62281405 4.98336855 -9.86957123 3.77936897 -8.109375 2.5859375 C-7.13484375 1.91304687 -6.1603125 1.24015625 -5.15625 0.546875 C-2.359375 -0.7890625 -2.359375 -0.7890625 0 0 Z " fill="#F9EADB" transform="translate(112.359375,13.7890625)"/>
</svg>
